PathFileType	4	(X/Y/Z)	/Users/niels/Desktop/University/Third Semester/Perception and Action/Exam/Gymnastics Motion Tracking/Code for Gym Tracking/Analyzed Data/Webcam_Backflip/id8_1_pure_Sports2D/id8_1_pure_Sports2D_px_person00.trc
DataRate	CameraRate	NumFrames	NumMarkers	Units	OrigDataRate	OrigDataStartFrame	OrigNumFrames
29.8125	29.8125	7	22	m	29.8125	40	160
Frame#	Time	Hip			RHip			RKnee			RAnkle			RBigToe			RSmallToe			RHeel			LHip			LKnee			LAnkle			LBigToe			LSmallToe			LHeel			Neck			Head			Nose			RShoulder			RElbow			RWrist			LShoulder			LElbow			LWrist		
		X1	Y1	Z1	X2	Y2	Z2	X3	Y3	Z3	X4	Y4	Z4	X5	Y5	Z5	X6	Y6	Z6	X7	Y7	Z7	X8	Y8	Z8	X9	Y9	Z9	X10	Y10	Z10	X11	Y11	Z11	X12	Y12	Z12	X13	Y13	Z13	X14	Y14	Z14	X15	Y15	Z15	X16	Y16	Z16	X17	Y17	Z17	X18	Y18	Z18	X19	Y19	Z19	X20	Y20	Z20	X21	Y21	Z21	X22	Y22	Z22
40	1.341719077568134	1.0092934915828833	-0.3585667486171115	0.0	1.0123299202753842	-0.3587832529012583	0.0	0.9724595549205913	-0.28566437412886614	0.0	1.0516037594283245	-0.2933381780202564	0.0	1.0802438345693721	-0.2722330264605529	0.0	1.08145973537617	-0.2792487528984573	0.0	1.0606309135526117	-0.2964084261677262	0.0	1.0077656930753713	-0.35776685276013376	0.0	0.972748798511262	-0.2900916652253738	0.0	1.0528387843024352	-0.29145015188031376	0.0	1.0754323348916746	-0.27871719634319353	0.0	1.0759979769774175	-0.27055785732353094	0.0	1.0633980657836053	-0.29543748337736436	0.0	0.9071062124997078	-0.37671332406724206	0.0	0.8584848329366976	-0.39035158509349127	0.0	0.8786508176174891	-0.37024048682677324	0.0	0.9191965541229336	-0.3682795650021232	0.0	0.9568309296711974	-0.3154305566533637	0.0	0.9604586955046425	-0.2722678100070684	0.0	0.9162216875153799	-0.3739100379033046	0.0	0.9557962033789164	-0.3200787397850737	0.0	0.9572627342703695	-0.27532491088345	0.0
41	1.3752620545073373	1.0117749210782832	-0.34164398343376007	0.0	1.0138295056094333	-0.34064995858175057	0.0	0.9485657778435475	-0.2910619028224893	0.0	1.0265476289176527	-0.27046180314807844	0.0	1.0482740714976964	-0.24372733089586085	0.0	1.0494702297140883	-0.252782024943538	0.0	1.0368944926765367	-0.26852077446209305	0.0	1.0116041260434028	-0.3420405194241459	0.0	0.9512145447177115	-0.2937453446830593	0.0	1.0292975088914007	-0.26768279110796656	0.0	1.0446450542304246	-0.2536626233837912	0.0	1.046585102183689	-0.23915953414788907	0.0	1.0411283809190683	-0.265613541985365	0.0	0.923470842733777	-0.3938748675035878	0.0	0.8822621904930409	-0.42351614169628166	0.0	0.8925325239936642	-0.4000014080890108	0.0	0.9331331453060785	-0.38154606325485396	0.0	0.9589483015933116	-0.32273220242285067	0.0	0.9558983304817281	-0.2861266375336002	0.0	0.9323534652361137	-0.38866608679527337	0.0	0.9643591555210008	-0.33196469848506605	0.0	0.9561074961658702	-0.29098115408625325	0.0
42	1.4088050314465406	1.0095741066475061	-0.3271691840863179	0.0	1.0103230210978809	-0.3256197259113438	0.0	0.92965576224341	-0.3073850291290647	0.0	0.9961596046749912	-0.26147652876773947	0.0	1.0068534741901913	-0.23454362631278844	0.0	1.0081139020793493	-0.2445574039609954	0.0	1.0059899427605898	-0.25479074976592103	0.0	1.0110450273961347	-0.3284574584502963	0.0	0.9343252813220744	-0.3071810472092577	0.0	0.999906583923264	-0.2572042033335536	0.0	1.0039055756472224	-0.24608447102689493	0.0	1.00768035379118	-0.22621250600894163	0.0	1.0109686127447333	-0.24928805228681955	0.0	0.9450211820578107	-0.4092121517480154	0.0	0.9159082386594549	-0.4510404163123637	0.0	0.9154512943184284	-0.42684218084370057	0.0	0.9505903807896516	-0.3936746550304705	0.0	0.9588876683560433	-0.3311686139784087	0.0	0.9491574207747739	-0.30151348757152935	0.0	0.9525826882896454	-0.4018778977802789	0.0	0.9721867581638641	-0.34463503283445485	0.0	0.9545203912760014	-0.31010473213195333	0.0
43	1.442348008385744	1.0025320712490313	-0.317362945063015	0.0	1.0018061935233857	-0.31608398819911043	0.0	0.9181847074326084	-0.3325114608273448	0.0	0.9635085420285685	-0.26748768085201335	0.0	0.9607701824814243	-0.24544128081144329	0.0	0.96226411185352	-0.25442910556676046	0.0	0.9712784336265937	-0.25678857029209484	0.0	1.0057368530472544	-0.3192826608377449	0.0	0.9242018494393186	-0.329119244241373	0.0	0.9674673372312578	-0.26158965976224025	0.0	0.9580343916213452	-0.25607138720364214	0.0	0.9635246632655524	-0.2336936367524665	0.0	0.9763479210361722	-0.24890983542756273	0.0	0.9695101819328449	-0.42060562563448295	0.0	0.9564027538457953	-0.4694455134649718	0.0	0.945672683826829	-0.4476437712101043	0.0	0.9701176654849699	-0.40315877282340695	0.0	0.9582791059830238	-0.34236645128118576	0.0	0.9425259137946601	-0.31953189589038394	0.0	0.9750263521234988	-0.41159619455495566	0.0	0.979262891329346	-0.3583288072093478	0.0	0.9542777331983247	-0.3330620822998286	0.0
44	1.4758909853249473	0.9914712829453511	-0.3142107628793843	0.0	0.9892298513804785	-0.31388947295836944	0.0	0.9149917883097068	-0.3633529993511415	0.0	0.9317969148820177	-0.28873833995832254	0.0	0.916250316118855	-0.2761070265514103	0.0	0.9178814489620374	-0.28191233871604876	0.0	0.9364160857959559	-0.27514519252020975	0.0	0.9962324412451856	-0.31647942605392204	0.0	0.9216754509463151	-0.3572584530920416	0.0	0.9355685992183185	-0.28172370359524407	0.0	0.9136212540921546	-0.2833483028356626	0.0	0.9199181669961438	-0.26202683674001476	0.0	0.9412926746566244	-0.26601966144610045	0.0	0.9941328338367095	-0.42705706511357294	0.0	0.999242676188079	-0.4774624506446432	0.0	0.9797924956861306	-0.4608960396092058	0.0	0.989774594744636	-0.40925661919213924	0.0	0.9589924347306291	-0.3571128596435842	0.0	0.9387971615870241	-0.34198735743640574	0.0	0.9972036631505724	-0.4167139398850607	0.0	0.9857321585927202	-0.37292342152003743	0.0	0.9565865397298171	-0.3594323322579532	0.0
45	1.5094339622641506	0.9778479854716796	-0.31926877080380606	0.0	0.9742338655057997	-0.3201903024624362	0.0	0.9189281456087456	-0.3968013174363427	0.0	0.9042620032531298	-0.32481441412297807	0.0	0.8800885383613766	-0.32520481306218213	0.0	0.8812675424811222	-0.32664922341364294	0.0	0.9050913998445477	-0.30993890906498955	0.0	0.9836359564918801	-0.32152118426252035	0.0	0.9257164726545786	-0.38891568791958264	0.0	0.9081546472375869	-0.3175694287648889	0.0	0.8778115333901498	-0.3276618576211554	0.0	0.8836938859438302	-0.30982616664039775	0.0	0.9099234852975929	-0.30092549437614274	0.0	1.016264431090083	-0.4289028838929146	0.0	1.039483948728716	-0.4758628343992326	0.0	1.0135757474785414	-0.4664110612490081	0.0	1.0074993641282053	-0.4121882565309439	0.0	0.9626397014778095	-0.37514570046872364	0.0	0.9411344911980699	-0.37076284891662115	0.0	1.0166623503550742	-0.4175328267450358	0.0	0.9919978780336373	-0.3882958573923448	0.0	0.9624463942838676	-0.38833239820813525	0.0
46	1.542976939203354	0.9634661204187139	-0.3334973944095682	0.0	0.9588607247638427	-0.3354627224189855	0.0	0.927355669516697	-0.43084826031663814	0.0	0.8839936581074137	-0.3745818568020347	0.0	0.8581227381573975	-0.3894522798854837	0.0	0.857920056149737	-0.3869342098799185	0.0	0.8807981875370731	-0.36037608695015516	0.0	0.9695440017782613	-0.33535434545662207	0.0	0.9337370116019659	-0.4222146686885395	0.0	0.8884961707393753	-0.3677118063362817	0.0	0.8566121463543726	-0.3873073230531352	0.0	0.8610200243605994	-0.3734768891734105	0.0	0.8857675928278937	-0.3522119159441355	0.0	1.033755285860319	-0.427550649740979	0.0	1.0728453695307003	-0.4670273273270203	0.0	1.0429462034120338	-0.465250110099162	0.0	1.02143881130178	-0.4129956788342807	0.0	0.9702654147632748	-0.39545926778125756	0.0	0.9516344422902244	-0.40550903963963697	0.0	1.0314235492378379	-0.41563894545011887	0.0	0.9987727757050173	-0.4045673262354743	0.0	0.972785279117701	-0.4184375712636984	0.0
